<svg width="443" height="458" viewBox="0 0 443 458" fill="none" xmlns="http://www.w3.org/2000/svg">
<path fill-rule="evenodd" clip-rule="evenodd" d="M185.419 660.117C123.716 705.1 42.898 702.284 -32.691 690.993C-88.5738 682.645 -143.562 643.002 -185.048 604.775C-226.05 566.995 -247.67 516.565 -258.959 462.056C-273.044 394.047 -290.039 322.332 -256.109 261.663C-214.691 187.606 -147.385 103.756 -62.6426 111.033C99.8632 145.911 8.45005 300.692 70.0084 358.067C129.457 413.477 258.706 321.459 291.836 454.422C311.321 537.392 254.445 609.796 185.419 660.117Z" fill="#CFF0D2"/>
<path fill-rule="evenodd" clip-rule="evenodd" d="M193.734 653.172C132.03 698.155 51.213 695.34 -24.3761 684.048C-80.2589 675.7 -135.247 636.057 -176.733 597.831C-217.735 560.05 -239.355 509.62 -250.644 455.111C-264.729 387.102 -281.725 315.388 -247.794 254.718C-206.376 180.661 -139.07 96.8109 -54.3277 104.088C108.178 138.966 16.765 293.747 78.3233 351.123C137.772 406.532 267.021 314.514 300.151 447.477C319.636 530.447 262.76 602.851 193.734 653.172Z" stroke="#9D9D9D" stroke-dasharray="13 13"/>
</svg>
