<svg width="991" height="967" viewBox="0 0 991 967" fill="none" xmlns="http://www.w3.org/2000/svg">
<path fill-rule="evenodd" clip-rule="evenodd" d="M441.709 -112.62C542.12 -178.689 668.829 -167.938 786.667 -144.238C873.784 -126.716 957.059 -59.9471 1019.24 3.53559C1080.69 66.2775 1110.72 147.44 1124.21 234.223C1141.03 342.499 1162.14 456.842 1104.13 549.8C1033.32 663.271 921.079 790.154 788.552 772.065C536.043 704.405 691.664 467.626 599.45 372.398C510.397 280.434 300.24 415.348 258.56 203.222C234.418 70.9464 329.382 -38.7115 441.709 -112.62Z" fill="#CFF0D2"/>
<path fill-rule="evenodd" clip-rule="evenodd" d="M428.11 -102.326C528.521 -168.394 655.23 -157.643 773.068 -133.943C860.185 -116.422 943.46 -49.6527 1005.64 13.83C1067.09 76.5719 1097.12 157.734 1110.61 244.517C1127.44 352.793 1148.54 467.136 1090.53 560.095C1019.72 673.566 907.479 800.448 774.953 782.359C522.444 714.699 678.065 477.92 585.851 382.693C496.798 290.729 286.641 425.643 244.961 213.517C220.818 81.2408 315.783 -28.4171 428.11 -102.326Z" stroke="#5ECE68" stroke-dasharray="13 13"/>
</svg>
