<svg width="717" height="684" viewBox="0 0 717 684" fill="none" xmlns="http://www.w3.org/2000/svg">
<path fill-rule="evenodd" clip-rule="evenodd" d="M-159.893 285.233C-201.09 203.894 -182.135 109.314 -154.181 22.529C-133.514 -41.631 -76.0577 -98.6775 -22.8854 -140.106C29.6665 -181.051 93.4103 -196.733 159.974 -199.465C243.023 -202.874 331.012 -208.992 396.107 -157.306C475.565 -94.2142 561.585 1.24523 536.601 99.5815C463.981 284.104 298.847 146.534 219.176 207.88C142.236 267.124 225.923 437.074 62.4736 450.322C-39.2909 457.19 -113.808 376.223 -159.893 285.233Z" fill="#CFF0D2"/>
<path fill-rule="evenodd" clip-rule="evenodd" d="M-153.299 296.364C-194.495 215.026 -175.541 120.445 -147.586 33.6605C-126.919 -30.4994 -69.4634 -87.546 -16.2911 -128.975C36.2608 -169.92 100.005 -185.601 166.568 -188.334C249.617 -191.743 337.606 -197.86 402.701 -146.174C482.16 -83.0827 568.179 12.3768 543.196 110.713C470.575 295.236 305.441 157.666 225.771 219.012C148.83 278.256 232.517 448.206 69.0679 461.453C-32.6966 468.322 -107.213 387.355 -153.299 296.364Z" stroke="#9D9D9D" stroke-dasharray="13 13"/>
</svg>
