<svg width="59" height="59" viewBox="0 0 59 59" fill="none" xmlns="http://www.w3.org/2000/svg">
<path fill-rule="evenodd" clip-rule="evenodd" d="M59 29.4995C59 45.7922 45.7922 59 29.4995 59C13.2078 59 0 45.7922 0 29.4995C0 13.2073 13.2078 0 29.4995 0L58.9679 0.0315635V9.73979H29.4995C18.5869 9.73979 9.73979 18.5869 9.73979 29.5C9.73979 40.4131 18.5869 49.2602 29.4995 49.2602C40.4131 49.2602 49.2597 40.4136 49.2597 29.5V12.6461H58.9684L59 29.4995Z" fill="#5ECE68"/>
<path fill-rule="evenodd" clip-rule="evenodd" d="M17.5 42C20.6277 45.1534 24.9247 46.9815 29.6903 46.9815C39.2394 46.9815 46.9815 39.1539 46.9815 29.4982V12.0185L17.5 42Z" fill="#73EA7E"/>
<path fill-rule="evenodd" clip-rule="evenodd" d="M17.5 42C14.3403 38.8759 12.0185 34.0839 12.0185 29.3232C12.0185 19.7851 19.8609 12.0185 29.5343 12.0185L46.9815 12.0226L17.5 42Z" fill="#9CFFA5"/>
</svg>
