<svg width="796" height="776" viewBox="0 0 796 776" fill="none" xmlns="http://www.w3.org/2000/svg">
<path fill-rule="evenodd" clip-rule="evenodd" d="M519.559 -247.608C614.514 -278.986 714.063 -243.171 803.69 -198.885C869.952 -166.144 922.516 -94.7717 958.829 -30.5609C994.718 32.9006 1001.38 104.374 993.524 176.799C983.727 267.162 976.066 363.304 909.403 425.328C828.03 501.038 710.469 578.6 607.824 535.657C419.401 427.24 595.513 270.942 541.893 174.85C490.111 82.0508 292.099 145.027 304.286 -33.8752C313.37 -145.037 413.336 -212.507 519.559 -247.608Z" fill="#FFF8B9"/>
<path fill-rule="evenodd" clip-rule="evenodd" d="M506.408 -242.28C601.363 -273.658 700.912 -237.842 790.539 -193.556C856.801 -160.816 909.365 -89.4433 945.678 -25.2325C981.567 38.229 988.225 109.702 980.373 182.128C970.576 272.49 962.915 368.633 896.252 430.656C814.879 506.366 697.318 583.929 594.673 540.985C406.25 432.568 582.362 276.271 528.742 180.178C476.96 87.3792 278.948 150.355 291.135 -28.5468C300.219 -139.709 400.185 -207.179 506.408 -242.28Z" stroke="#9D9D9D" stroke-dasharray="13 13"/>
</svg>
