<svg width="778" height="787" viewBox="0 0 778 787" fill="none" xmlns="http://www.w3.org/2000/svg">
<path fill-rule="evenodd" clip-rule="evenodd" d="M969.525 397.488C1028.86 487.663 1019.2 601.456 997.92 707.281C982.185 785.518 922.222 860.304 865.21 916.145C808.864 971.335 735.976 998.302 658.039 1010.41C560.801 1025.52 458.114 1044.48 374.632 992.382C272.728 928.786 158.78 827.991 175.025 708.974C235.787 482.206 448.429 621.963 533.949 539.149C616.539 459.174 495.378 270.44 685.88 233.009C804.671 211.328 903.151 296.612 969.525 397.488Z" fill="#FFF8B9"/>
<path fill-rule="evenodd" clip-rule="evenodd" d="M960.28 385.275C1019.61 475.45 1009.96 589.243 988.674 695.068C972.939 773.304 912.976 848.091 855.965 903.932C799.619 959.122 726.731 986.089 648.794 998.2C551.556 1013.31 448.869 1032.27 365.386 980.169C263.482 916.573 149.534 815.777 165.78 696.761C226.542 469.993 439.184 609.749 524.704 526.936C607.293 446.961 486.133 258.227 676.634 220.796C795.426 199.115 893.906 284.399 960.28 385.275Z" stroke="#2F2F2F" stroke-dasharray="13 13"/>
</svg>
